# xmcd
#
# Track frame offsets:
#	150
#	37752
#	59694
#	87627
#	111116
#	131891
#	157142
#	202262
#	213463
#	234767
#	253110
#	271028
#	296872
#	312855
#	337086
#
# Disc length: 4697 seconds
#
# Revision: 1
# Processed by: cddbd v1.5.2PL0 Copyright (c) Steve Scherf et al.
# Submitted via: audiograbber 1.83.01
#
DISCID=ed12570f
DTITLE=Willy Michl - Blues Infusion Vol. 1   The Best of Willy Michl
DYEAR=2014
DGENRE=Blues
TTITLE0=Epilog
TTITLE1=Bluetental der Ewigkeit
TTITLE2=Drah Di Net Um
TTITLE3=1000-jaehriger Eskimo
TTITLE4=Die 5 Dimensionen
TTITLE5=Bluesman
TTITLE6=Wintermorgen
TTITLE7=Wuidpferdl
TTITLE8=Isarflimmern
TTITLE9=Waxenstein Blues
TTITLE10=Blues Goes To Mountain
TTITLE11=Ich Lieb Nur Dich
TTITLE12=Willy`s Liebeslied
TTITLE13=Ois Is Blues
TTITLE14=Regentropfen Blues
EXTD=
EXTT0=
EXTT1=
EXTT2=
EXTT3=
EXTT4=
EXTT5=
EXTT6=
EXTT7=
EXTT8=
EXTT9=
EXTT10=
EXTT11=
EXTT12=
EXTT13=
EXTT14=
PLAYORDER=
